<?xml version="1.0" encoding="utf-8"?>
<!-- Generator: Adobe Illustrator 24.3.0, SVG Export Plug-In . SVG Version: 6.00 Build 0)  -->
<svg version="1.1" id="Layer_1" xmlns="http://www.w3.org/2000/svg" xmlns:xlink="http://www.w3.org/1999/xlink" x="0px" y="0px"
	 viewBox="0 0 681.4 510.3" style="enable-background:new 0 0 681.4 510.3;" xml:space="preserve">
<style type="text/css">
	.st0{fill:#EDEDDA;}
	.st1{font-family:'ChulaNarak-Bold';}
	.st2{font-size:56px;}
	.st3{font-size:57px;}
	.st4{fill:none;stroke:#000000;stroke-miterlimit:10;}
	.st5{fill:none;stroke:#000000;stroke-width:3;stroke-linecap:square;stroke-linejoin:round;stroke-dasharray:4.5611,13.6834;}
	.st6{fill:none;stroke:#000000;stroke-width:3;stroke-linejoin:round;stroke-miterlimit:10;}
	.st7{fill:none;stroke:#000000;stroke-width:2;stroke-linejoin:round;stroke-miterlimit:10;}
</style>
<rect class="st0" width="681.4" height="510.3"/>
<text transform="matrix(1 0 0 1 67.0938 128.1244)"><tspan x="0" y="0" class="st1 st2">ขฃฉฐถผฝห</tspan><tspan x="0" y="50" class="st1 st2">ศษส</tspan></text>
<text transform="matrix(1 0 0 1 67.0938 71.6593)" class="st1 st3">อักษร</text>
<text transform="matrix(1 0 0 1 317.9706 71.6593)" class="st1 st3">คำ</text>
<g>
	<text transform="matrix(1 0 0 1 64.8176 241.3276)"><tspan x="0" y="0" class="st1 st2">กจดตบปอ</tspan><tspan x="0" y="45" class="st1 st2">ฎฏ</tspan></text>
</g>
<g>
	<text transform="matrix(1 0 0 1 62.6441 359.6327)"><tspan x="0" y="0" class="st1 st2">คฅฆชฌภพฟ</tspan><tspan x="0" y="50" class="st1 st2">ฑฒทธซฮ งว</tspan><tspan x="0" y="100" class="st1 st2">ญณนมยรลฬ</tspan></text>
</g>
<rect x="57.1" y="85.6" class="st4" width="255.1" height="112.9"/>
<rect x="57" y="28.9" class="st4" width="255.1" height="56.2"/>
<rect x="28.7" y="85.6" class="st4" width="28.3" height="112.9"/>
<rect x="28.7" y="28.5" class="st4" width="28.3" height="56.7"/>
<rect x="312.2" y="85.6" class="st4" width="56.7" height="56.3"/>
<rect x="312.2" y="28.9" class="st4" width="56.7" height="56.2"/>
<rect x="312.2" y="142" class="st4" width="56.7" height="56.6"/>
<rect x="312.2" y="198.6" class="st4" width="56.7" height="56.7"/>
<rect x="312.2" y="255.3" class="st4" width="56.7" height="56.7"/>
<rect x="312.2" y="312" class="st4" width="56.7" height="57"/>
<rect x="312.2" y="369.1" class="st4" width="56.7" height="56.2"/>
<rect x="312.2" y="425.8" class="st4" width="56.7" height="56.2"/>
<rect x="368.8" y="85.7" class="st4" width="56.7" height="56.3"/>
<rect x="368.8" y="29" class="st4" width="56.7" height="56.2"/>
<rect x="368.8" y="142" class="st4" width="56.7" height="56.6"/>
<rect x="368.8" y="198.7" class="st4" width="56.7" height="56.7"/>
<rect x="368.8" y="255.4" class="st4" width="56.7" height="56.7"/>
<rect x="368.8" y="312.1" class="st4" width="56.7" height="57"/>
<rect x="368.8" y="369.2" class="st4" width="56.7" height="56.2"/>
<rect x="368.8" y="425.9" class="st4" width="56.7" height="56.2"/>
<rect x="425.5" y="85.8" class="st4" width="56.7" height="56.3"/>
<rect x="425.5" y="29.1" class="st4" width="56.7" height="56.2"/>
<rect x="425.5" y="142.1" class="st4" width="56.7" height="56.6"/>
<rect x="425.5" y="198.8" class="st4" width="56.7" height="56.7"/>
<rect x="425.5" y="255.5" class="st4" width="56.7" height="56.7"/>
<rect x="425.5" y="312.2" class="st4" width="56.7" height="57"/>
<rect x="425.5" y="369.3" class="st4" width="56.7" height="56.2"/>
<rect x="425.5" y="426" class="st4" width="56.7" height="56.2"/>
<rect x="482.2" y="85.9" class="st4" width="56.7" height="56.3"/>
<rect x="482.2" y="29.2" class="st4" width="56.7" height="56.2"/>
<rect x="482.2" y="142.2" class="st4" width="56.7" height="56.6"/>
<rect x="482.2" y="198.9" class="st4" width="56.7" height="56.7"/>
<rect x="482.2" y="255.6" class="st4" width="56.7" height="56.7"/>
<rect x="482.2" y="312.3" class="st4" width="56.7" height="57"/>
<rect x="482.2" y="369.4" class="st4" width="56.7" height="56.2"/>
<rect x="482.2" y="426.1" class="st4" width="56.7" height="56.2"/>
<rect x="538.9" y="86" class="st4" width="56.7" height="56.3"/>
<rect x="538.9" y="29.3" class="st4" width="56.7" height="56.2"/>
<rect x="538.9" y="142.3" class="st4" width="56.7" height="56.6"/>
<rect x="538.9" y="199" class="st4" width="56.7" height="56.7"/>
<rect x="538.9" y="255.7" class="st4" width="56.7" height="56.7"/>
<rect x="538.9" y="312.4" class="st4" width="56.7" height="57"/>
<rect x="538.9" y="369.5" class="st4" width="56.7" height="56.2"/>
<rect x="538.9" y="426.1" class="st4" width="56.7" height="56.2"/>
<rect x="595.6" y="86.1" class="st4" width="56.7" height="56.3"/>
<rect x="595.6" y="29.4" class="st4" width="56.7" height="56.2"/>
<rect x="595.6" y="142.4" class="st4" width="56.7" height="56.6"/>
<rect x="595.6" y="199.1" class="st4" width="56.7" height="56.7"/>
<rect x="595.6" y="255.8" class="st4" width="56.7" height="56.7"/>
<rect x="595.6" y="312.5" class="st4" width="56.7" height="57"/>
<rect x="595.6" y="369.6" class="st4" width="56.7" height="56.2"/>
<rect x="595.6" y="426.2" class="st4" width="56.7" height="56.2"/>
<rect x="28.7" y="198.6" class="st4" width="28.3" height="113.4"/>
<rect x="28.7" y="311.9" class="st4" width="28.3" height="170.1"/>
<rect x="57.1" y="198.6" class="st4" width="255.1" height="113.4"/>
<rect x="57.1" y="311.9" class="st4" width="255.1" height="170.2"/>
<path class="st4" d="M340.5,168.8"/>
<g>
	
		<ellipse transform="matrix(0.3827 -0.9239 0.9239 0.3827 192.4069 402.2311)" class="st5" cx="397.2" cy="57.1" rx="14.5" ry="14.5"/>
</g>
<polyline class="st6" points="380.9,105.2 397.2,124.2 413.5,105.2 "/>
<polyline class="st6" points="607.7,218.3 624,237.3 640.3,218.3 "/>
<polyline class="st6" points="526.9,237.3 510.6,218.3 494.3,237.3 "/>
<polyline class="st6" points="526.9,293.2 510.6,274.2 494.3,293.2 "/>
<polyline class="st6" points="469.8,350.2 453.6,331.2 437.3,350.2 "/>
<polyline class="st6" points="469.8,407.2 453.6,388.2 437.3,407.2 "/>
<polyline class="st6" points="413.6,463.5 397.3,444.5 381,463.5 "/>
<polyline class="st6" points="526.9,124.2 510.6,105.2 494.3,124.2 "/>
<polyline class="st7" points="51,124.2 42.9,105.2 34.7,124.2 "/>
<polyline class="st7" points="34.7,447.7 42.9,466.7 51,447.7 "/>
<polyline class="st6" points="526.9,180.2 510.6,161.2 494.3,180.2 "/>
<polyline class="st6" points="607.7,275 624,294 640.3,275 "/>
<line class="st6" x1="386.1" y1="161.6" x2="407" y2="182.5"/>
<line class="st6" x1="442.8" y1="105.2" x2="463.7" y2="126.1"/>
<line class="st6" x1="386.1" y1="275" x2="407" y2="295.9"/>
<line class="st6" x1="443.4" y1="216.5" x2="464.3" y2="237.4"/>
<line class="st6" x1="556.8" y1="237.4" x2="577.7" y2="216.5"/>
<line class="st6" x1="500.1" y1="350.9" x2="521" y2="330"/>
<line class="st6" x1="500.1" y1="464.3" x2="521" y2="443.3"/>
<line class="st6" x1="386.7" y1="407.4" x2="407.7" y2="386.5"/>
<line class="st6" x1="381.8" y1="227.4" x2="411.4" y2="227.4"/>
<line class="st6" x1="381.8" y1="340.6" x2="411.4" y2="340.6"/>
<path d="M452.2,64.7V49.4h3.4v15.3H452.2z"/>
<path d="M507.5,61.6c1.3-0.3,2.7-0.8,4.1-1.3c1.4-0.6,2.7-1.3,3.9-2.3c1.2-1,2.3-2.2,3.2-3.6c0.9-1.4,1.6-3.1,1.9-5.2l3.2,0.7
	c-0.7,3.3-1.9,5.9-3.7,7.9c-1.8,2-3.7,3.5-5.8,4.7c-2.1,1.1-4.2,1.9-6.4,2.3c-2.1,0.4-3.8,0.7-5.2,0.8l-0.6-3.1l1-1
	c0.3-0.3,0.6-0.7,1-1c0.3-0.4,0.7-0.8,1-1.2c-1.5-0.1-2.7-0.6-3.8-1.7c-1-1.1-1.6-2.3-1.6-3.8c0-1.6,0.6-2.9,1.7-4
	c1.1-1.1,2.4-1.6,3.9-1.6c1.5,0,2.8,0.5,3.9,1.6c1.1,1.1,1.7,2.4,1.7,4c0,1.2-0.4,2.5-1.1,4C509.4,59,508.5,60.4,507.5,61.6z
	 M503.2,53.6c0,0.7,0.2,1.3,0.7,1.7c0.4,0.4,1,0.7,1.7,0.7c0.7,0,1.3-0.2,1.7-0.7c0.4-0.4,0.7-1,0.7-1.7c0-0.7-0.2-1.3-0.7-1.7
	c-0.4-0.4-1-0.7-1.7-0.7c-0.7,0-1.3,0.2-1.7,0.7C503.4,52.3,503.2,52.9,503.2,53.6z"/>
<path d="M581.4,47.2v10.1c0,1.1-0.2,2.2-0.7,3.2c-0.4,1-1,1.8-1.7,2.6c-0.7,0.7-1.4,1.3-2.1,1.7c-0.8,0.4-1.5,0.6-2.1,0.6h-1.5V54.9
	c0-0.6-0.3-1.2-0.8-1.6c-0.5-0.4-1.1-0.6-1.8-0.6c-0.7,0-1.3,0.2-1.8,0.6c-0.5,0.4-0.7,0.9-0.7,1.6h-3.2c0-0.6-0.2-1.2-0.7-1.6
	c-0.5-0.4-1.1-0.6-1.8-0.6c-0.7,0-1.3,0.2-1.8,0.6c-0.5,0.4-0.8,0.9-0.8,1.5v1.4c0.3-0.1,0.6-0.2,0.9-0.3c0.3-0.1,0.6-0.1,0.9-0.1
	c1.4,0,2.6,0.5,3.6,1.5c1,1,1.5,2.2,1.5,3.6s-0.5,2.6-1.5,3.6c-1,1-2.2,1.5-3.6,1.5c-1.4,0-2.6-0.5-3.6-1.4c-1-1-1.5-2.1-1.5-3.3
	v-6.4c0.1-1.5,0.7-2.7,1.8-3.8c1.1-1,2.5-1.6,4-1.6s2.9,0.6,4.1,1.7c1-1.1,2.4-1.7,4.1-1.7c0.4,0,1,0.1,1.7,0.3
	c0.7,0.2,1.3,0.5,1.9,0.9c0.6,0.4,1.1,1,1.5,1.7c0.4,0.7,0.6,1.5,0.6,2.5v5.7c0.3,0,0.7-0.3,1.1-1c0.4-0.7,0.6-1.4,0.6-2.3V47.2
	H581.4z M561.9,58.7c-0.6,0-1.2,0.2-1.6,0.6c-0.4,0.4-0.6,0.9-0.6,1.5c0,0.6,0.2,1.1,0.6,1.5c0.4,0.4,0.9,0.6,1.6,0.6
	c0.6,0,1.1-0.2,1.5-0.6c0.4-0.4,0.6-0.9,0.6-1.5c0-0.6-0.2-1.1-0.6-1.5C563,59,562.5,58.7,561.9,58.7z"/>
<path d="M626,55.5h6.1v3.4H626v6.4h-3.3v-6.4h-5.9v-3.4h5.9v-6.1h3.3V55.5z"/>
<line class="st7" x1="42.9" y1="105.2" x2="42.9" y2="182.5"/>
<line class="st7" x1="42.9" y1="324.9" x2="42.9" y2="466.7"/>
<line class="st7" x1="34.7" y1="255.2" x2="51" y2="255.2"/>
<circle cx="567.3" cy="114.2" r="2.3"/>
<circle cx="624" cy="114.2" r="2.3"/>
<circle cx="624" cy="170.7" r="2.3"/>
<circle cx="567.3" cy="284" r="2.3"/>
<circle cx="567.3" cy="340.5" r="2.3"/>
<circle cx="624" cy="340.5" r="2.3"/>
<circle cx="567.3" cy="397.6" r="2.3"/>
<circle cx="510.6" cy="397.5" r="2.3"/>
<circle cx="624" cy="397.6" r="2.3"/>
<circle cx="567.3" cy="453.8" r="2.3"/>
<circle cx="453.9" cy="453.8" r="2.3"/>
<circle cx="624" cy="453.8" r="2.3"/>
<circle cx="453.9" cy="284" r="2.3"/>
<circle cx="567.3" cy="170.7" r="2.3"/>
<circle cx="453.9" cy="170.7" r="2.3"/>
<g>
	<line class="st6" x1="327.4" y1="113.5" x2="351.1" y2="113.5"/>
	<polyline class="st6" points="338.1,126.6 351.1,113.5 338.1,100.4 	"/>
</g>
<g>
	<line class="st6" x1="326.8" y1="172.1" x2="350.5" y2="172.1"/>
	<line class="st6" x1="351.8" y1="183.9" x2="351.8" y2="160.2"/>
</g>
<g>
	<line class="st6" x1="327.4" y1="227" x2="351.1" y2="227"/>
	<polyline class="st6" points="338.1,240.1 351.1,227 338.1,213.9 	"/>
</g>
<g>
	<line class="st6" x1="326.8" y1="285.6" x2="350.5" y2="285.6"/>
	<line class="st6" x1="351.8" y1="297.4" x2="351.8" y2="273.7"/>
</g>
<g>
	<line class="st6" x1="327.4" y1="340.7" x2="351.1" y2="340.7"/>
	<polyline class="st6" points="338.1,353.8 351.1,340.7 338.1,327.6 	"/>
</g>
<g>
	<line class="st6" x1="327.4" y1="399.3" x2="339.9" y2="399.3"/>
	<line class="st6" x1="341.1" y1="411.1" x2="341.1" y2="387.4"/>
</g>
<g>
	<line class="st6" x1="323.6" y1="456.6" x2="350.5" y2="456.1"/>
	<line class="st6" x1="351.8" y1="468" x2="351.8" y2="444.2"/>
</g>
</svg>
